<?xml version="1.0" encoding="UTF-8" standalone="no"?>
<svg
   width="1477.0469"
   height="1461.625"
   version="1.0"
   viewBox="0 0 1107.7852 1096.2188"
   zoomAndPan="magnify"
   id="svg260"
   xmlns="http://www.w3.org/2000/svg"
   xmlns:svg="http://www.w3.org/2000/svg">
  <defs
     id="defs257" />
  <path
     id="path276"
     style="fill:#000000;stroke-width:0.75"
     d="M 553.89262,2.4609375e-5 A 553.89221,553.89221 0 0 0 2.3828125e-5,553.89252 553.89221,553.89221 0 0 0 447.81302,1096.2187 c -1.0896,-2.4878 -1.964,-5.2406 -2.5957,-8.2939 -4.9399,-23.8758 -6.586,-63.5997 -4.9395,-119.17238 -100.8542,-25.1107 -180.92162,-78.214 -240.19919,-159.3091 -57.63099,-78.625 -86.44629,-170.8344 -86.44629,-276.6284 0,-128.0231 41.16515,-235.6696 123.49512,-322.9394 83.97665,-89.3281 189.56536,-133.992195 316.76516,-133.992195 126.3765,0 231.7587,44.869195 316.147,134.608895 82.7416,87.6815 124.1133,195.1229 124.1133,322.3227 0,109.4988 -29.8449,203.766 -89.5342,282.8027 -60.9242,81.0951 -144.0776,132.9638 -249.46,155.6045 18.4999,37.73968 45.2204,72.62818 80.0156,104.71438 A 553.89221,553.89221 0 0 0 1107.7852,553.89252 553.89221,553.89221 0 0 0 553.89262,2.4609375e-5 Z m 0,306.200595390625 c -64.2174,0 -115.0565,22.0239 -152.51662,66.0704 -35.81356,41.5767 -53.72022,95.0916 -53.72022,160.5439 0,66.6873 17.49503,120.2009 52.48535,160.5425 36.63679,42.8116 87.88749,64.2187 153.75149,64.2187 63.8057,0 114.6448,-22.0238 152.5166,-66.0703 35.8135,-41.9883 53.7202,-95.2968 53.7202,-159.9258 0,-63.394 -18.3182,-116.2909 -54.9551,-158.6909 -38.695,-44.4581 -89.1226,-66.6885 -151.2817,-66.6885 z" />
</svg>
