<?xml version="1.0" encoding="UTF-8" standalone="no"?>
<!-- Created with Inkscape (http://www.inkscape.org/) -->

<svg
   width="154.83112mm"
   height="221.38214mm"
   viewBox="0 0 585.18849 836.71991"
   version="1.1"
   id="svg1"
   xml:space="preserve"
   inkscape:export-filename="sil.svg"
   inkscape:export-xdpi="96"
   inkscape:export-ydpi="96"
   xmlns:inkscape="http://www.inkscape.org/namespaces/inkscape"
   xmlns:sodipodi="http://sodipodi.sourceforge.net/DTD/sodipodi-0.dtd"
   xmlns:xlink="http://www.w3.org/1999/xlink"
   xmlns="http://www.w3.org/2000/svg"
   xmlns:svg="http://www.w3.org/2000/svg"><sodipodi:namedview
     id="namedview1"
     pagecolor="#ffffff"
     bordercolor="#000000"
     borderopacity="0.25"
     inkscape:showpageshadow="2"
     inkscape:pageopacity="0.0"
     inkscape:pagecheckerboard="0"
     inkscape:deskcolor="#d1d1d1"
     inkscape:document-units="mm" /><defs
     id="defs1"><linearGradient
       inkscape:collect="always"
       xlink:href="#a"
       id="linearGradient2535"
       x1="92.10009"
       y1="580.43866"
       x2="677.28857"
       y2="580.43866"
       gradientUnits="userSpaceOnUse" /><linearGradient
       id="a"
       x2="256"
       y2="256"
       gradientTransform="matrix(1.4648,0,0,1.4648,-128.74251,-26.946108)"
       gradientUnits="userSpaceOnUse"><stop
         stop-color="#9800ff"
         offset="0"
         id="stop1" /><stop
         stop-color="#9800ff"
         offset=".0039062"
         id="stop2" /><stop
         stop-color="#9701ff"
         offset=".0078125"
         id="stop3" /><stop
         stop-color="#9701ff"
         offset=".011719"
         id="stop4" /><stop
         stop-color="#9602ff"
         offset=".015625"
         id="stop5" /><stop
         stop-color="#9602ff"
         offset=".019531"
         id="stop6" /><stop
         stop-color="#9503ff"
         offset=".023438"
         id="stop7" /><stop
         stop-color="#9404ff"
         offset=".027344"
         id="stop8" /><stop
         stop-color="#9404ff"
         offset=".03125"
         id="stop9" /><stop
         stop-color="#9305ff"
         offset=".035156"
         id="stop10" /><stop
         stop-color="#9305ff"
         offset=".039062"
         id="stop11" /><stop
         stop-color="#9206ff"
         offset=".042969"
         id="stop12" /><stop
         stop-color="#9107ff"
         offset=".046875"
         id="stop13" /><stop
         stop-color="#9107ff"
         offset=".050781"
         id="stop14" /><stop
         stop-color="#9008ff"
         offset=".054688"
         id="stop15" /><stop
         stop-color="#9008ff"
         offset=".058594"
         id="stop16" /><stop
         stop-color="#8f09ff"
         offset=".0625"
         id="stop17" /><stop
         stop-color="#8e0aff"
         offset=".066406"
         id="stop18" /><stop
         stop-color="#8e0aff"
         offset=".070312"
         id="stop19" /><stop
         stop-color="#8d0bff"
         offset=".074219"
         id="stop20" /><stop
         stop-color="#8d0bff"
         offset=".078125"
         id="stop21" /><stop
         stop-color="#8c0cff"
         offset=".082031"
         id="stop22" /><stop
         stop-color="#8b0dff"
         offset=".085938"
         id="stop23" /><stop
         stop-color="#8b0dff"
         offset=".089844"
         id="stop24" /><stop
         stop-color="#8a0eff"
         offset=".09375"
         id="stop25" /><stop
         stop-color="#8a0eff"
         offset=".097656"
         id="stop26" /><stop
         stop-color="#890fff"
         offset=".10156"
         id="stop27" /><stop
         stop-color="#8810ff"
         offset=".10547"
         id="stop28" /><stop
         stop-color="#8810ff"
         offset=".10938"
         id="stop29" /><stop
         stop-color="#8711ff"
         offset=".11328"
         id="stop30" /><stop
         stop-color="#8711ff"
         offset=".11719"
         id="stop31" /><stop
         stop-color="#8612ff"
         offset=".12109"
         id="stop32" /><stop
         stop-color="#8513ff"
         offset=".125"
         id="stop33" /><stop
         stop-color="#8513ff"
         offset=".12891"
         id="stop34" /><stop
         stop-color="#8414ff"
         offset=".13281"
         id="stop35" /><stop
         stop-color="#8414ff"
         offset=".13672"
         id="stop36" /><stop
         stop-color="#8315ff"
         offset=".14062"
         id="stop37" /><stop
         stop-color="#8216ff"
         offset=".14453"
         id="stop38" /><stop
         stop-color="#8216ff"
         offset=".14844"
         id="stop39" /><stop
         stop-color="#8117ff"
         offset=".15234"
         id="stop40" /><stop
         stop-color="#8117ff"
         offset=".15625"
         id="stop41" /><stop
         stop-color="#8018ff"
         offset=".16016"
         id="stop42" /><stop
         stop-color="#7f19ff"
         offset=".16406"
         id="stop43" /><stop
         stop-color="#7f19ff"
         offset=".16797"
         id="stop44" /><stop
         stop-color="#7e1aff"
         offset=".17188"
         id="stop45" /><stop
         stop-color="#7e1aff"
         offset=".17578"
         id="stop46" /><stop
         stop-color="#7d1bff"
         offset=".17969"
         id="stop47" /><stop
         stop-color="#7c1cff"
         offset=".18359"
         id="stop48" /><stop
         stop-color="#7c1cff"
         offset=".1875"
         id="stop49" /><stop
         stop-color="#7b1dff"
         offset=".19141"
         id="stop50" /><stop
         stop-color="#7b1dff"
         offset=".19531"
         id="stop51" /><stop
         stop-color="#7a1eff"
         offset=".19922"
         id="stop52" /><stop
         stop-color="#791fff"
         offset=".20312"
         id="stop53" /><stop
         stop-color="#791fff"
         offset=".20703"
         id="stop54" /><stop
         stop-color="#7820ff"
         offset=".21094"
         id="stop55" /><stop
         stop-color="#7820ff"
         offset=".21484"
         id="stop56" /><stop
         stop-color="#7721ff"
         offset=".21875"
         id="stop57" /><stop
         stop-color="#7622ff"
         offset=".22266"
         id="stop58" /><stop
         stop-color="#7622ff"
         offset=".22656"
         id="stop59" /><stop
         stop-color="#7523ff"
         offset=".23047"
         id="stop60" /><stop
         stop-color="#7523ff"
         offset=".23438"
         id="stop61" /><stop
         stop-color="#7424ff"
         offset=".23828"
         id="stop62" /><stop
         stop-color="#7325ff"
         offset=".24219"
         id="stop63" /><stop
         stop-color="#7325ff"
         offset=".24609"
         id="stop64" /><stop
         stop-color="#7226ff"
         offset=".25"
         id="stop65" /><stop
         stop-color="#7226ff"
         offset=".25391"
         id="stop66" /><stop
         stop-color="#7127ff"
         offset=".25781"
         id="stop67" /><stop
         stop-color="#7028ff"
         offset=".26172"
         id="stop68" /><stop
         stop-color="#7028ff"
         offset=".26562"
         id="stop69" /><stop
         stop-color="#6f29ff"
         offset=".26953"
         id="stop70" /><stop
         stop-color="#6f29ff"
         offset=".27344"
         id="stop71" /><stop
         stop-color="#6e2aff"
         offset=".27734"
         id="stop72" /><stop
         stop-color="#6d2bff"
         offset=".28125"
         id="stop73" /><stop
         stop-color="#6d2bff"
         offset=".28516"
         id="stop74" /><stop
         stop-color="#6c2cff"
         offset=".28906"
         id="stop75" /><stop
         stop-color="#6c2cff"
         offset=".29297"
         id="stop76" /><stop
         stop-color="#6b2dff"
         offset=".29688"
         id="stop77" /><stop
         stop-color="#6a2eff"
         offset=".30078"
         id="stop78" /><stop
         stop-color="#6a2eff"
         offset=".30469"
         id="stop79" /><stop
         stop-color="#692fff"
         offset=".30859"
         id="stop80" /><stop
         stop-color="#692fff"
         offset=".3125"
         id="stop81" /><stop
         stop-color="#6830ff"
         offset=".31641"
         id="stop82" /><stop
         stop-color="#6731ff"
         offset=".32031"
         id="stop83" /><stop
         stop-color="#6731ff"
         offset=".32422"
         id="stop84" /><stop
         stop-color="#6632ff"
         offset=".32812"
         id="stop85" /><stop
         stop-color="#6632ff"
         offset=".33203"
         id="stop86" /><stop
         stop-color="#6533ff"
         offset=".33594"
         id="stop87" /><stop
         stop-color="#6533ff"
         offset=".33984"
         id="stop88" /><stop
         stop-color="#6434ff"
         offset=".34375"
         id="stop89" /><stop
         stop-color="#6335ff"
         offset=".34766"
         id="stop90" /><stop
         stop-color="#6335ff"
         offset=".35156"
         id="stop91" /><stop
         stop-color="#6236ff"
         offset=".35547"
         id="stop92" /><stop
         stop-color="#6236ff"
         offset=".35938"
         id="stop93" /><stop
         stop-color="#6137ff"
         offset=".36328"
         id="stop94" /><stop
         stop-color="#6038ff"
         offset=".36719"
         id="stop95" /><stop
         stop-color="#6038ff"
         offset=".37109"
         id="stop96" /><stop
         stop-color="#5f39ff"
         offset=".375"
         id="stop97" /><stop
         stop-color="#5f39ff"
         offset=".37891"
         id="stop98" /><stop
         stop-color="#5e3aff"
         offset=".38281"
         id="stop99" /><stop
         stop-color="#5d3bff"
         offset=".38672"
         id="stop100" /><stop
         stop-color="#5d3bff"
         offset=".39062"
         id="stop101" /><stop
         stop-color="#5c3cff"
         offset=".39453"
         id="stop102" /><stop
         stop-color="#5c3cff"
         offset=".39844"
         id="stop103" /><stop
         stop-color="#5b3dff"
         offset=".40234"
         id="stop104" /><stop
         stop-color="#5a3eff"
         offset=".40625"
         id="stop105" /><stop
         stop-color="#5a3eff"
         offset=".41016"
         id="stop106" /><stop
         stop-color="#593fff"
         offset=".41406"
         id="stop107" /><stop
         stop-color="#593fff"
         offset=".41797"
         id="stop108" /><stop
         stop-color="#5840ff"
         offset="0.41797"
         id="stop109" /><stop
         stop-color="#5741ff"
         offset=".42578"
         id="stop110" /><stop
         stop-color="#5741ff"
         offset=".42969"
         id="stop111" /><stop
         stop-color="#5642ff"
         offset=".43359"
         id="stop112" /><stop
         stop-color="#5642ff"
         offset=".4375"
         id="stop113" /><stop
         stop-color="#5543ff"
         offset=".44141"
         id="stop114" /><stop
         stop-color="#5444ff"
         offset=".44531"
         id="stop115" /><stop
         stop-color="#5444ff"
         offset=".44922"
         id="stop116" /><stop
         stop-color="#5345ff"
         offset=".45312"
         id="stop117" /><stop
         stop-color="#5345ff"
         offset=".45703"
         id="stop118" /><stop
         stop-color="#5246ff"
         offset=".46094"
         id="stop119" /><stop
         stop-color="#5147ff"
         offset=".46484"
         id="stop120" /><stop
         stop-color="#5147ff"
         offset=".46875"
         id="stop121" /><stop
         stop-color="#5048ff"
         offset=".47266"
         id="stop122" /><stop
         stop-color="#5048ff"
         offset=".47656"
         id="stop123" /><stop
         stop-color="#4f49ff"
         offset=".48047"
         id="stop124" /><stop
         stop-color="#4e4aff"
         offset=".48438"
         id="stop125" /><stop
         stop-color="#4e4aff"
         offset=".48828"
         id="stop126" /><stop
         stop-color="#4d4bff"
         offset=".49219"
         id="stop127" /><stop
         stop-color="#4d4bff"
         offset=".49609"
         id="stop128" /><stop
         stop-color="#4c4cff"
         offset=".5"
         id="stop129" /><stop
         stop-color="#4b4dff"
         offset=".50391"
         id="stop130" /><stop
         stop-color="#4b4dff"
         offset=".50781"
         id="stop131" /><stop
         stop-color="#4a4eff"
         offset=".51172"
         id="stop132" /><stop
         stop-color="#4a4eff"
         offset=".51562"
         id="stop133" /><stop
         stop-color="#494fff"
         offset=".51953"
         id="stop134" /><stop
         stop-color="#4850ff"
         offset=".52344"
         id="stop135" /><stop
         stop-color="#4850ff"
         offset=".52734"
         id="stop136" /><stop
         stop-color="#4751ff"
         offset=".53125"
         id="stop137" /><stop
         stop-color="#4751ff"
         offset=".53516"
         id="stop138" /><stop
         stop-color="#4652ff"
         offset=".53906"
         id="stop139" /><stop
         stop-color="#4553ff"
         offset=".54297"
         id="stop140" /><stop
         stop-color="#4553ff"
         offset=".54688"
         id="stop141" /><stop
         stop-color="#4454ff"
         offset=".55078"
         id="stop142" /><stop
         stop-color="#4454ff"
         offset=".55469"
         id="stop143" /><stop
         stop-color="#4355ff"
         offset=".55859"
         id="stop144" /><stop
         stop-color="#4256ff"
         offset=".5625"
         id="stop145" /><stop
         stop-color="#4256ff"
         offset=".56641"
         id="stop146" /><stop
         stop-color="#4157ff"
         offset=".57031"
         id="stop147" /><stop
         stop-color="#4157ff"
         offset=".57422"
         id="stop148" /><stop
         stop-color="#4058ff"
         offset=".57812"
         id="stop149" /><stop
         stop-color="#3f59ff"
         offset=".58203"
         id="stop150" /><stop
         stop-color="#3f59ff"
         offset=".58594"
         id="stop151" /><stop
         stop-color="#3e5aff"
         offset=".58984"
         id="stop152" /><stop
         stop-color="#3e5aff"
         offset=".59375"
         id="stop153" /><stop
         stop-color="#3d5bff"
         offset=".59766"
         id="stop154" /><stop
         stop-color="#3c5cff"
         offset=".60156"
         id="stop155" /><stop
         stop-color="#3c5cff"
         offset=".60547"
         id="stop156" /><stop
         stop-color="#3b5dff"
         offset=".60938"
         id="stop157" /><stop
         stop-color="#3b5dff"
         offset=".61328"
         id="stop158" /><stop
         stop-color="#3a5eff"
         offset=".61719"
         id="stop159" /><stop
         stop-color="#395fff"
         offset=".62109"
         id="stop160" /><stop
         stop-color="#395fff"
         offset=".625"
         id="stop161" /><stop
         stop-color="#3860ff"
         offset=".62891"
         id="stop162" /><stop
         stop-color="#3860ff"
         offset=".63281"
         id="stop163" /><stop
         stop-color="#3761ff"
         offset=".63672"
         id="stop164" /><stop
         stop-color="#3662ff"
         offset=".64062"
         id="stop165" /><stop
         stop-color="#3662ff"
         offset=".64453"
         id="stop166" /><stop
         stop-color="#3563ff"
         offset=".64844"
         id="stop167" /><stop
         stop-color="#3563ff"
         offset=".65234"
         id="stop168" /><stop
         stop-color="#3464ff"
         offset=".65625"
         id="stop169" /><stop
         stop-color="#3364ff"
         offset=".66016"
         id="stop170" /><stop
         stop-color="#3365ff"
         offset=".66406"
         id="stop171" /><stop
         stop-color="#3266ff"
         offset=".66797"
         id="stop172" /><stop
         stop-color="#3266ff"
         offset=".67188"
         id="stop173" /><stop
         stop-color="#3167ff"
         offset=".67578"
         id="stop174" /><stop
         stop-color="#3167ff"
         offset=".67969"
         id="stop175" /><stop
         stop-color="#3068ff"
         offset=".68359"
         id="stop176" /><stop
         stop-color="#2f69ff"
         offset=".6875"
         id="stop177" /><stop
         stop-color="#2f69ff"
         offset=".69141"
         id="stop178" /><stop
         stop-color="#2e6aff"
         offset=".69531"
         id="stop179" /><stop
         stop-color="#2e6aff"
         offset=".69922"
         id="stop180" /><stop
         stop-color="#2d6bff"
         offset=".70312"
         id="stop181" /><stop
         stop-color="#2c6cff"
         offset=".70703"
         id="stop182" /><stop
         stop-color="#2c6cff"
         offset=".71094"
         id="stop183" /><stop
         stop-color="#2b6dff"
         offset=".71484"
         id="stop184" /><stop
         stop-color="#2b6dff"
         offset=".71875"
         id="stop185" /><stop
         stop-color="#2a6eff"
         offset=".72266"
         id="stop186" /><stop
         stop-color="#296fff"
         offset=".72656"
         id="stop187" /><stop
         stop-color="#296fff"
         offset=".73047"
         id="stop188" /><stop
         stop-color="#2870ff"
         offset=".73438"
         id="stop189" /><stop
         stop-color="#2870ff"
         offset=".73828"
         id="stop190" /><stop
         stop-color="#2771ff"
         offset=".74219"
         id="stop191" /><stop
         stop-color="#2672ff"
         offset=".74609"
         id="stop192" /><stop
         stop-color="#2672ff"
         offset=".75"
         id="stop193" /><stop
         stop-color="#2573ff"
         offset=".75391"
         id="stop194" /><stop
         stop-color="#2573ff"
         offset=".75781"
         id="stop195" /><stop
         stop-color="#2474ff"
         offset=".76172"
         id="stop196" /><stop
         stop-color="#2375ff"
         offset=".76562"
         id="stop197" /><stop
         stop-color="#2375ff"
         offset=".76953"
         id="stop198" /><stop
         stop-color="#2276ff"
         offset=".77344"
         id="stop199" /><stop
         stop-color="#2276ff"
         offset=".77734"
         id="stop200" /><stop
         stop-color="#2177ff"
         offset=".78125"
         id="stop201" /><stop
         stop-color="#2078ff"
         offset=".78516"
         id="stop202" /><stop
         stop-color="#2078ff"
         offset=".78906"
         id="stop203" /><stop
         stop-color="#1f79ff"
         offset=".79297"
         id="stop204" /><stop
         stop-color="#1f79ff"
         offset=".79688"
         id="stop205" /><stop
         stop-color="#1e7aff"
         offset=".80078"
         id="stop206" /><stop
         stop-color="#1d7bff"
         offset=".80469"
         id="stop207" /><stop
         stop-color="#1d7bff"
         offset=".80859"
         id="stop208" /><stop
         stop-color="#1c7cff"
         offset=".8125"
         id="stop209" /><stop
         stop-color="#1c7cff"
         offset=".81641"
         id="stop210" /><stop
         stop-color="#1b7dff"
         offset=".82031"
         id="stop211" /><stop
         stop-color="#1a7eff"
         offset=".82422"
         id="stop212" /><stop
         stop-color="#1a7eff"
         offset=".82812"
         id="stop213" /><stop
         stop-color="#197fff"
         offset=".83203"
         id="stop214" /><stop
         stop-color="#197fff"
         offset=".83594"
         id="stop215" /><stop
         stop-color="#1880ff"
         offset=".83984"
         id="stop216" /><stop
         stop-color="#1781ff"
         offset=".84375"
         id="stop217" /><stop
         stop-color="#1781ff"
         offset=".84766"
         id="stop218" /><stop
         stop-color="#1682ff"
         offset=".85156"
         id="stop219" /><stop
         stop-color="#1682ff"
         offset=".85547"
         id="stop220" /><stop
         stop-color="#1583ff"
         offset=".85938"
         id="stop221" /><stop
         stop-color="#1484ff"
         offset=".86328"
         id="stop222" /><stop
         stop-color="#1484ff"
         offset=".86719"
         id="stop223" /><stop
         stop-color="#1385ff"
         offset=".87109"
         id="stop224" /><stop
         stop-color="#1385ff"
         offset=".875"
         id="stop225" /><stop
         stop-color="#1286ff"
         offset=".87891"
         id="stop226" /><stop
         stop-color="#1187ff"
         offset=".88281"
         id="stop227" /><stop
         stop-color="#1187ff"
         offset=".88672"
         id="stop228" /><stop
         stop-color="#1088ff"
         offset=".89062"
         id="stop229" /><stop
         stop-color="#1088ff"
         offset=".89453"
         id="stop230" /><stop
         stop-color="#0f89ff"
         offset=".89844"
         id="stop231" /><stop
         stop-color="#0e8aff"
         offset=".90234"
         id="stop232" /><stop
         stop-color="#0e8aff"
         offset=".90625"
         id="stop233" /><stop
         stop-color="#0d8bff"
         offset=".91016"
         id="stop234" /><stop
         stop-color="#0d8bff"
         offset=".91406"
         id="stop235" /><stop
         stop-color="#0c8cff"
         offset=".91797"
         id="stop236" /><stop
         stop-color="#0b8dff"
         offset=".92188"
         id="stop237" /><stop
         stop-color="#0b8dff"
         offset=".92578"
         id="stop238" /><stop
         stop-color="#0a8eff"
         offset=".92969"
         id="stop239" /><stop
         stop-color="#0a8eff"
         offset=".93359"
         id="stop240" /><stop
         stop-color="#098fff"
         offset=".9375"
         id="stop241" /><stop
         stop-color="#0890ff"
         offset=".94141"
         id="stop242" /><stop
         stop-color="#0890ff"
         offset=".94531"
         id="stop243" /><stop
         stop-color="#0791ff"
         offset=".94922"
         id="stop244" /><stop
         stop-color="#0791ff"
         offset=".95312"
         id="stop245" /><stop
         stop-color="#0692ff"
         offset=".95703"
         id="stop246" /><stop
         stop-color="#0593ff"
         offset=".96094"
         id="stop247" /><stop
         stop-color="#0593ff"
         offset=".96484"
         id="stop248" /><stop
         stop-color="#0494ff"
         offset=".96875"
         id="stop249" /><stop
         stop-color="#0494ff"
         offset=".97266"
         id="stop250" /><stop
         stop-color="#0395ff"
         offset=".97656"
         id="stop251" /><stop
         stop-color="#0296ff"
         offset=".98047"
         id="stop252" /><stop
         stop-color="#0296ff"
         offset=".98438"
         id="stop253" /><stop
         stop-color="#0197ff"
         offset=".98828"
         id="stop254" /><stop
         stop-color="#0197ff"
         offset=".99219"
         id="stop255" /><stop
         stop-color="#0098ff"
         offset=".99609"
         id="stop256" /><stop
         stop-color="#0098ff"
         offset="1"
         id="stop257" /></linearGradient></defs><g
     inkscape:label="Layer 1"
     inkscape:groupmode="layer"
     id="layer1"
     transform="translate(-92.100092,-162.07873)"><path
       id="path1915"
       style="display:inline;fill:url(#linearGradient2535);stroke-width:0.157148"
       d="m 363.75703,162.07929 c -1.47097,0.0103 -2.97595,0.20105 -4.34375,0.57032 -1.36798,0.36926 -2.59911,0.91704 -3.52149,1.64258 -1.17514,0.92421 -1.93406,1.41311 -2.72656,1.53515 -0.7925,0.12204 -1.61859,-0.12261 -2.92578,-0.66406 -1.04179,-0.43152 -2.29468,-0.69308 -3.61719,-0.80274 -1.32251,-0.10965 -2.71359,-0.0667 -4.0293,0.10743 -1.3157,0.17414 -2.55674,0.48052 -3.57812,0.90039 -1.02138,0.41987 -1.82414,0.95254 -2.26367,1.58008 -0.38391,0.54791 -0.89676,1.04372 -1.46485,1.45703 -0.56809,0.41331 -1.19147,0.74483 -1.79101,0.96679 -0.59955,0.22197 -1.17604,0.33456 -1.6543,0.3086 -0.47826,-0.026 -0.85826,-0.19102 -1.0625,-0.52149 -0.14294,-0.2313 -0.91886,-0.85978 -2.07617,-1.41797 -0.57866,-0.27909 -1.2522,-0.5418 -1.99024,-0.72656 -0.73803,-0.18476 -1.54039,-0.29257 -2.375,-0.26562 -1.16635,0.0376 -2.15725,0.20591 -3.00586,0.46093 -0.8486,0.25503 -1.55357,0.5963 -2.14648,0.97852 -1.18582,0.76444 -1.9238,1.69364 -2.45898,2.42578 -0.31693,0.43344 -0.58345,0.76199 -0.86329,0.99219 -0.27984,0.23019 -0.57243,0.36178 -0.9375,0.40234 -0.73013,0.0811 -1.75364,-0.20314 -3.55859,-0.79883 -1.0899,-0.3597 -2.35793,-0.59445 -3.70703,-0.71093 -1.3491,-0.11649 -2.77934,-0.11477 -4.1875,-0.004 -1.40816,0.11095 -2.79541,0.3317 -4.0625,0.6543 -1.26709,0.32259 -2.41396,0.74717 -3.33985,1.26562 -1.5686,0.78965 -2.93663,1.80002 -4.11914,2.98242 -1.18233,1.18258 -2.1791,2.53703 -3.00195,4.01758 -0.82285,1.48056 -1.47307,3.08789 -1.96289,4.77149 -0.48982,1.68359 -0.81854,3.44464 -1.00195,5.23633 -0.18341,1.79151 -0.22138,3.61331 -0.125,5.41796 0.0964,1.80483 0.32622,3.59339 0.67578,5.31641 0.34955,1.72302 0.82037,3.38147 1.39648,4.92774 0.57611,1.54609 1.25716,2.97933 2.03321,4.2539 0.30086,0.81822 0.53525,1.73536 0.53906,2.68945 0.004,0.95427 -0.223,1.94601 -0.84375,2.91211 -0.9804,2.10882 -2.10166,3.96702 -3.28516,5.72852 -1.18349,1.7615 -2.42827,3.42573 -3.65234,5.14844 -1.22407,1.72271 -2.42718,3.50367 -3.5293,5.49609 -1.10212,1.99243 -2.10422,4.19692 -2.92187,6.76758 -0.23337,1.16687 -0.48062,2.0913 -0.79297,2.79102 -0.31236,0.69954 -0.68839,1.1754 -1.17578,1.44335 -0.4874,0.26813 -1.08722,0.32909 -1.84571,0.20118 -0.75849,-0.12791 -1.6771,-0.44522 -2.80273,-0.9336 -1.66435,-1.04654 -3.68063,-2.18479 -6.00391,-3.3164 -2.32328,-1.13161 -4.95233,-2.25676 -7.83984,-3.27539 -2.88751,-1.01881 -6.03358,-1.93057 -9.39063,-2.63868 -3.35687,-0.70811 -6.92632,-1.21257 -10.6582,-1.41211 -1.07107,-0.008 -1.92724,0.0473 -2.66797,0.0547 -0.74073,0.007 -1.36602,-0.0331 -1.9707,-0.23242 -0.60468,-0.19928 -1.1888,-0.55775 -1.85156,-1.18555 -0.66294,-0.62779 -1.40484,-1.52459 -2.32032,-2.80273 -1.3078,-1.82589 -2.54835,-3.30566 -3.85742,-4.5 -1.30907,-1.19434 -2.68534,-2.10386 -4.26758,-2.7832 -1.58224,-0.67952 -3.36878,-1.13072 -5.49609,-1.41211 -2.12731,-0.2814 -4.59674,-0.39258 -7.54102,-0.39258 -4.09596,0 -6.43874,0.0617 -8.10351,0.40429 -0.83239,0.17141 -1.49501,0.41372 -2.12305,0.75391 -0.62804,0.34019 -1.22136,0.77743 -1.91406,1.3418 -1.68768,1.375 -3.7034,3.61235 -4.48047,4.9707 -0.31417,0.54917 -0.60448,0.98013 -0.95313,1.31836 -0.34864,0.33823 -0.75485,0.58365 -1.30273,0.76563 -1.09576,0.36394 -2.75551,0.47011 -5.63672,0.53711 -3.2349,0.075 -5.16169,0.16688 -6.75195,0.4375 -1.59027,0.27044 -2.84402,0.72016 -4.72657,1.51562 -1.3422,0.56721 -2.36601,1.22286 -3.15625,2.05469 -0.79023,0.83182 -1.34706,1.83982 -1.75,3.10937 -0.18449,0.58132 -0.62334,1.28802 -1.18164,1.95703 -0.55829,0.66902 -1.23603,1.30035 -1.89843,1.73438 -0.704,0.46127 -1.40683,1.14774 -2.07032,1.98242 -0.66348,0.83468 -1.28733,1.81872 -1.83203,2.875 -0.5447,1.05628 -1.00979,2.18447 -1.35742,3.31055 -0.34763,1.12608 -0.57811,2.24889 -0.65039,3.29297 -0.0666,0.96213 -0.39723,1.93175 -0.97852,2.88476 -0.58128,0.95302 -1.41324,1.88944 -2.48242,2.78907 -1.57052,1.54799 -3.24416,2.97294 -5.02734,4.29296 -1.78319,1.3202 -3.6753,2.53655 -5.68164,3.67188 -2.00635,1.13533 -4.12719,2.18808 -6.36719,3.18164 -2.24,0.99356 -4.6,1.92736 -7.08398,2.82227 -1.47132,0.49626 -2.93519,1.21635 -4.31836,2.07031 -1.38335,0.85396 -2.68625,1.84214 -3.83399,2.8789 -1.14774,1.03694 -2.1398,2.12261 -2.9043,3.16797 -0.76432,1.04537 -1.30153,2.05045 -1.53515,2.92969 -0.23647,0.88996 -0.59765,2.17058 -0.89063,3.58008 -0.29298,1.4095 -0.51775,2.94805 -0.47656,4.35351 0.0763,2.0557 0.0985,3.81018 0.002,5.34571 -0.0966,1.53553 -0.31088,2.85281 -0.70898,4.03515 -0.39811,1.18252 -0.98044,2.22992 -1.80859,3.22657 -0.82833,0.99664 -1.90381,1.942 -3.29102,2.91992 -2.00158,1.38837 -3.87339,2.96197 -5.58789,4.69531 -1.7145,1.73334 -3.270829,3.62754 -4.638669,5.6582 -1.36784,2.03084 -2.54816,4.19766 -3.50977,6.47852 -0.96161,2.28086 -1.70537,4.67496 -2.20117,7.1582 -0.43847,2.14363 -0.57952,3.98539 -0.39844,5.78125 0.18108,1.79603 0.6843,3.54652 1.53711,5.51172 0.41797,0.9632 0.75099,1.69985 1.08985,2.2793 0.33868,0.57945 0.6834,1.00248 1.1289,1.33789 0.4455,0.33541 0.99257,0.58337 1.73047,0.81445 0.7379,0.23108 1.66676,0.44448 2.882809,0.71094 0.92123,0.20186 1.60922,0.51263 2.06641,0.93359 0.45719,0.42114 0.68359,0.95282 0.68359,1.59961 0,0.62427 0.1196,1.28898 0.3418,1.97657 0.2222,0.68759 0.54843,1.39775 0.96094,2.11718 0.82502,1.43887 1.9976,2.90992 3.39258,4.28711 1.3948,1.37737 3.01083,2.66254 4.7207,3.72657 1.70987,1.06402 3.51352,1.9074 5.2832,2.40625 0.52602,0.14828 1.00768,0.41166 1.4375,0.78125 0.42982,0.36959 0.80883,0.84596 1.13281,1.41992 0.64796,1.14791 1.07356,2.68706 1.24024,4.55078 0.22431,1.48837 0.81319,2.97004 1.62305,4.44141 0.80968,1.47119 1.84125,2.93349 2.95312,4.38281 2.22375,2.89864 4.76745,5.74728 6.49805,8.52734 0.29797,0.50423 0.84663,0.9743 1.49023,1.32617 0.6436,0.35188 1.38214,0.58556 2.06055,0.61524 0.84552,0.037 1.58248,0.13209 2.20898,0.29101 0.62651,0.15893 1.14257,0.382 1.54883,0.67188 0.40626,0.28988 0.70194,0.64827 0.88672,1.07812 0.18478,0.42986 0.25864,0.9309 0.2207,1.50977 -0.11024,1.29785 0.0201,2.58478 0.35157,3.82031 0.33146,1.23553 0.86537,2.42043 1.5664,3.51758 0.70103,1.09715 1.56796,2.10557 2.56641,2.98828 0.99845,0.88271 2.12784,1.63825 3.35156,2.23047 1.22372,0.59222 2.54112,1.02059 3.91797,1.24609 1.37685,0.22568 2.81383,0.25015 4.27148,0.0332 1.45783,-0.21694 2.93764,-0.67456 4.4043,-1.41016 1.46667,-0.73559 2.91891,-1.74977 4.32227,-3.08008 0.89827,-1.03913 1.83587,-2.42835 2.62109,-3.83007 0.78522,-1.4019 1.41806,-2.81665 1.71094,-3.9043 0.58575,-2.17531 1.58897,-4.79507 2.23047,-5.82227 0.37211,-0.59586 0.94604,-1.02702 1.5957,-1.30273 0.64967,-0.27571 1.37648,-0.39649 2.05664,-0.36914 0.68017,0.0273 1.31374,0.20231 1.77735,0.51562 0.46343,0.31331 0.75585,0.76547 0.75585,1.34766 0.0362,0.63656 -0.22875,1.39446 -0.59375,2.24805 -0.36499,0.85341 -0.82866,1.80261 -1.1875,2.82031 -0.35883,1.01769 -0.61331,2.10548 -0.55859,3.23437 0.0274,0.56445 0.13271,1.13838 0.33984,1.72071 0.20714,0.58232 0.51529,1.17203 0.95313,1.76562 0.59269,0.3663 0.90512,0.84443 0.99609,1.39453 0.091,0.55011 -0.0386,1.17263 -0.32812,1.82617 -0.2895,0.65372 -0.7384,1.33848 -1.28711,2.01563 -0.54871,0.67715 -1.1981,1.34641 -1.88477,1.9668 -1.32001,1.19259 -2.34008,2.22781 -3.11523,3.19922 -0.77515,0.97123 -1.30505,1.87862 -1.64063,2.82031 -0.33557,0.94168 -0.47724,1.91609 -0.47851,3.01953 -10e-4,1.10344 0.13749,2.33629 0.36523,3.79297 0.30297,1.93785 0.40145,3.18027 0.21094,4.16992 -0.19051,0.98965 -0.67002,1.72672 -1.52344,2.65234 -0.55916,0.6066 -1.17614,1.13557 -1.72265,1.49805 -0.54652,0.36248 -1.02257,0.55846 -1.29297,0.50195 -0.42969,-0.0899 -0.93782,0.25033 -1.47071,0.89649 -0.53288,0.64616 -1.09068,1.59876 -1.61328,2.73437 -0.5226,1.13561 -1.01133,2.45378 -1.41015,3.83203 -0.39883,1.37843 -0.70759,2.8168 -0.86914,4.19141 -0.28649,2.43765 -0.38978,3.80591 -0.12696,4.79688 0.13142,0.49548 0.35555,0.89765 0.69336,1.29101 0.33781,0.39337 0.78866,0.7779 1.37891,1.24219 l 2.57226,2.02344 -2.27929,1.21875 c -0.62646,0.33528 -1.48829,1.09307 -2.375,2.04492 -0.88672,0.95185 -1.79832,2.09776 -2.51758,3.20703 -1.13251,1.74733 -1.77364,2.96847 -2.09375,4.43945 -0.32011,1.47116 -0.31921,3.1925 -0.16406,5.94141 0.0874,1.54836 0.31958,3.12674 0.64453,4.60742 0.32495,1.48068 0.74276,2.86322 1.20312,4.01953 0.46037,1.15632 0.96342,2.08685 1.45703,2.66211 0.24681,0.28763 0.49061,0.48584 0.72657,0.58008 0.23596,0.0942 0.46343,0.0844 0.67578,-0.0469 0.38551,-0.23825 0.63016,-0.31305 0.74609,-0.25782 0.11593,0.0552 0.10396,0.24069 -0.0215,0.52539 -0.25085,0.5694 -0.95698,1.53352 -2.00391,2.63672 -0.40659,0.42844 -0.74501,0.93608 -1.01758,1.50977 -0.27256,0.57369 -0.47772,1.21379 -0.61914,1.91015 -0.28283,1.39308 -0.30655,3.00974 -0.082,4.75977 0.22449,1.75003 0.6955,3.63281 1.4043,5.56055 0.7088,1.92774 1.65411,3.89995 2.82422,5.82617 1.54493,2.54324 2.41318,4.12575 2.78515,5.35742 0.18599,0.61584 0.24728,1.14359 0.20899,1.66016 -0.0383,0.51656 -0.17793,1.02226 -0.39453,1.59179 -0.36183,0.95168 -0.62462,1.69293 -0.76758,2.3125 -0.14297,0.61975 -0.16515,1.11818 -0.041,1.5879 0.12411,0.46971 0.39459,0.91068 0.83399,1.4121 0.43939,0.5016 1.04671,1.06393 1.84961,1.7793 0.86171,0.76781 1.54003,1.58301 1.96875,2.33399 0.42871,0.75097 0.60784,1.43776 0.47461,1.94726 -0.16942,0.76376 -0.0901,1.654 0.12304,2.56836 0.21317,0.91437 0.56023,1.85272 0.93164,2.71485 0.74282,1.72407 1.57776,3.14128 1.60742,3.43945 0.0549,0.55132 2.20422,2.77043 4.83594,5.16406 2.63189,2.39363 5.74652,4.96176 7.73633,6.21094 0.85431,0.53637 1.4045,1.07852 1.70703,1.75195 0.30253,0.67343 0.3574,1.47817 0.22266,2.54297 -0.12923,0.96952 -0.13946,2.05275 -0.043,3.1582 0.0965,1.10545 0.30019,2.23373 0.59766,3.29688 0.29746,1.06315 0.69046,2.05971 1.16406,2.90234 0.4736,0.84263 1.02741,1.53073 1.65234,1.97461 0.82008,0.5825 1.4397,1.08573 2.27344,1.41992 0.83374,0.3342 1.88162,0.49936 3.56445,0.4043 1.36478,-0.077 2.48799,0.002 3.375,0.24609 0.88702,0.24432 1.53952,0.65392 1.96094,1.23633 0.42142,0.58241 0.6121,1.33813 0.58008,2.27539 -0.032,0.93727 -0.28842,2.05634 -0.76172,3.36524 -0.5392,1.49112 -0.78386,2.51359 -0.68164,3.67578 0.10222,1.16219 0.55131,2.46412 1.40234,4.51758 0.5307,1.28052 1.23989,2.50178 2.06446,3.61328 0.82457,1.1115 1.76473,2.11334 2.76367,2.95508 0.99894,0.84173 2.05557,1.5229 3.10937,1.99414 1.05381,0.47124 2.10459,0.73242 3.09375,0.73242 0.49432,0.004 0.88191,0.14326 1.17774,0.39062 0.29583,0.24737 0.50015,0.60331 0.63281,1.03907 0.26533,0.87152 0.23978,2.06458 0.0644,3.36133 -0.35076,2.59331 -1.30076,5.60013 -1.71875,7.26757 -0.45486,2.14109 -0.79032,4.30018 -1.02343,6.46485 -0.23311,2.16467 -0.36271,4.33438 -0.40625,6.49609 -0.0871,4.32343 0.17238,8.61527 0.65039,12.76758 0.478,4.15231 1.17341,8.16671 1.95898,11.93555 0.78557,3.76866 1.66066,7.29184 2.49609,10.46484 0.52421,3.25844 1.45686,6.72787 2.48438,10.32227 1.02752,3.59423 2.15016,7.3134 3.05859,11.07617 0.45422,1.88138 0.85437,3.77413 1.16211,5.66601 0.30774,1.89206 0.52396,3.78425 0.60742,5.66602 0.0835,1.88177 0.035,3.75297 -0.18359,5.60352 -0.21861,1.85037 -0.60854,3.68015 -1.20703,5.47851 -1.35169,6.24249 -2.29808,12.25124 -3.03711,18.50782 -0.73903,6.25641 -1.27073,12.7612 -1.78906,19.99218 -0.26863,6.57808 -0.44078,10.08556 -0.81641,12.26368 -0.18782,1.08888 -0.42494,1.84559 -0.75195,2.48828 -0.32702,0.64268 -0.74398,1.17067 -1.28516,1.80273 -0.92674,1.08234 -1.68359,2.36047 -1.68359,2.83984 0,0.27004 -0.21929,0.53411 -0.61133,0.7793 -0.39204,0.24519 -0.9559,0.47251 -1.64453,0.66602 -1.37726,0.38701 -3.25318,0.64283 -5.24414,0.66211 -1.64999,0.0151 -3.65122,0.43974 -4.44727,0.94336 -0.46572,0.29463 -1.13266,0.3975 -1.95898,0.31054 -0.82632,-0.087 -1.8122,-0.36376 -2.91406,-0.82422 -1.49945,-0.6265 -2.80092,-1.05687 -3.98633,-1.27539 -1.18541,-0.21851 -2.25311,-0.22403 -3.28321,0 -1.02992,0.22403 -2.02314,0.67778 -3.05664,1.37891 -1.03349,0.70113 -2.10924,1.64854 -3.30468,2.86133 -1.7771,1.80261 -2.88979,3.1285 -3.63086,4.51953 -0.74108,1.39102 -1.11071,2.84717 -1.39453,4.91211 -0.152,1.10513 -0.30477,1.99949 -0.50977,2.76562 -0.205,0.76613 -0.46096,1.40484 -0.82031,2 -0.35936,0.59517 -0.82244,1.14604 -1.4375,1.73829 -0.61506,0.59207 -1.38336,1.22506 -2.35547,1.98242 -1.75356,1.36618 -3.16481,2.55153 -4.30664,3.66992 -1.14183,1.11839 -2.01267,2.171 -2.68164,3.26953 -0.66898,1.09853 -1.13767,2.24222 -1.47266,3.54883 -0.33499,1.30661 -0.53785,2.77495 -0.67773,4.51758 -0.20364,2.53683 -0.23144,4.25775 0.008,5.73047 0.23906,1.47255 0.74478,2.69743 1.61133,4.24023 0.74366,1.32402 1.28356,2.38845 1.60351,3.26172 0.31996,0.87327 0.42129,1.55472 0.28516,2.11523 -0.13613,0.56052 -0.50822,1.00098 -1.13281,1.38672 -0.6246,0.38575 -1.50301,0.71744 -2.64844,1.06641 -1.22876,0.37436 -2.24736,0.72492 -3.10547,1.11914 -0.85811,0.39421 -1.55443,0.83278 -2.13477,1.38476 -0.58033,0.55216 -1.04597,1.21825 -1.4414,2.06641 -0.39544,0.84817 -0.72198,1.8779 -1.02539,3.16016 -0.20153,0.85161 -0.34469,1.52734 -0.51367,2.0664 -0.16916,0.53907 -0.36424,0.94211 -0.66407,1.25 -0.29983,0.3079 -0.70527,0.51965 -1.29883,0.67774 -0.59338,0.15809 -1.37546,0.26189 -2.42578,0.35156 -1.75272,0.14967 -2.93904,0.0383 -4.02734,0.22852 -0.54415,0.0951 -1.06382,0.26525 -1.61719,0.58203 -0.55336,0.31678 -1.14086,0.77954 -1.82031,1.45898 -0.87685,0.88373 -1.72587,2.08965 -2.37695,3.61133 -0.32554,0.76084 -0.60241,1.60125 -0.80664,2.51953 -0.20424,0.91828 -0.33727,1.91393 -0.37696,2.98828 -0.0915,0.80716 0.0109,1.77544 -0.0391,2.96875 -0.0386,0.92347 -0.0589,2.01939 -0.17188,3.07813 -0.11296,1.05874 -0.31856,2.08032 -0.7207,2.85547 -0.38879,0.7494 -0.83152,2.19296 -1.23437,3.91406 -0.40286,1.7211 -0.76586,3.71973 -0.98828,5.58203 -0.23735,1.98667 -0.37576,3.43756 -0.39844,4.52149 -0.0637,4.82378 -0.66606,12.36001 -0.66602,12.40234 -0.0888,0.88422 -0.13476,1.9241 -0.13476,3.09961 0,1.45918 3e-4,2.55377 -0.0664,3.41211 -0.0667,0.85834 -0.19897,1.48132 -0.46484,1.99412 -0.26588,0.5129 -0.66425,0.9171 -1.26172,1.3399 -0.59747,0.4227 -1.39553,0.8633 -2.45703,1.4511 l -4.25,2.3535 v 7.9102 c 0,3.5714 0.0613,5.6045 0.40234,7.0059 0.17051,0.7007 0.41133,1.2442 0.75,1.7421 0.33867,0.498 0.77383,0.951 1.33594,1.4727 0.68472,0.6355 1.5629,1.2141 2.42383,1.6328 0.86075,0.4188 1.70461,0.6778 2.32617,0.6778 0.72582,0 1.30001,0.1561 1.69922,0.4531 0.3992,0.297 0.62343,0.7349 0.65234,1.2969 0.0495,0.9624 0.21658,3.9999 0.37305,6.75 0.15651,2.7498 0.40898,7.4749 0.56054,10.5 0.15163,3.0247 0.52426,5.9421 0.82813,6.4824 0.30376,0.5403 0.63056,1.6653 0.72656,2.5 0.3158,2.7446 0.87326,4.8186 1.50391,6.4414 0.63064,1.6226 1.33448,2.7945 1.94336,3.7363 1.76946,2.7387 2.07817,2.4269 1.97461,2.75 0.63545,1.1836 2.21104,2.945 3.46679,4.0899 0.40392,0 0.71706,0.1447 0.89454,0.3769 0.1773,0.2322 0.21927,0.5519 0.084,0.9043 0.005,1.4946 0.078,2.7301 0.22852,3.791 0.15036,1.0609 0.37999,1.9478 0.69531,2.7442 0.31531,0.7965 0.71773,1.5037 1.21679,2.205 0.49907,0.7014 1.09314,1.3965 1.79493,2.1719 0.75711,0.8366 1.59021,1.5604 2.38867,2.1192 0.79846,0.5587 1.5623,0.9523 2.18359,1.1328 0.68229,0.6431 1.61375,1.2157 2.73242,1.7285 1.11885,0.5128 2.42636,0.9661 3.86524,1.3691 2.87776,0.806 6.27956,1.4126 9.73828,1.9024 6.91726,0.9795 14.06298,1.4906 17.71094,2.1894 5.77482,0.2771 12.53032,0.8974 13.23437,1.1231 0.24497,0.103 0.24825,0.2807 0.10352,0.5117 -0.14473,0.231 -0.4375,0.5154 -0.78516,0.8359 -0.69531,0.6411 -1.6097,1.4228 -1.99609,2.1914 -0.7838,1.5593 -1.33834,3.0461 -1.70117,4.4649 -0.36284,1.4188 -0.5325,2.7699 -0.54297,4.0547 -0.0105,1.2846 0.13685,2.505 0.41015,3.6621 0.27331,1.1572 0.67167,2.2511 1.16016,3.2871 0.48849,1.0361 1.06804,2.0141 1.70313,2.9355 0.63508,0.9215 1.32597,1.7864 2.03906,2.5996 1.42617,1.6265 2.93899,3.0432 4.26562,4.2754 0.93285,0.8665 2.05213,1.6556 3.27735,2.3711 1.22521,0.7157 2.55722,1.3592 3.91601,1.9297 2.71759,1.1411 5.54268,1.9966 7.8418,2.5918 4.06749,0.1916 21.46912,0.6161 21.63086,0.7637 h 0.01 c 0.27167,0.2515 14.0094,0.3665 35.39062,0.3769 21.38122,0.01 50.40756,-0.084 81.25,-0.2519 30.84244,-0.1675 63.50483,-0.4073 92.16016,-0.6895 28.65533,-0.2821 53.30689,-0.6061 68.12696,-0.9394 6.25388,-0.1408 12.64364,-0.6398 18.08203,-1.3535 2.71919,-0.3569 5.20033,-0.7665 7.30664,-1.2129 2.10631,-0.4465 3.83976,-0.9295 5.06055,-1.4297 1.67427,-0.6861 3.28241,-1.5277 4.80468,-2.4903 1.52228,-0.9625 2.95713,-2.0465 4.28516,-3.2148 1.32803,-1.1683 2.54909,-2.4213 3.64062,-3.7246 1.09171,-1.3033 2.05585,-2.6561 2.86915,-4.0234 0.81312,-1.3675 1.47593,-2.7504 1.96875,-4.1114 0.49281,-1.3609 0.81505,-2.7007 0.94531,-3.9844 0.13026,-1.2836 0.0693,-2.5109 -0.20508,-3.6464 -0.27438,-1.1356 -0.76133,-2.179 -1.48242,-3.0957 -0.94779,-1.2048 -1.42091,-1.8122 -1.36914,-2.2286 0.0518,-0.4163 0.62858,-0.6417 1.77929,-1.082 2.35678,-0.9015 6.48913,-2.1208 10.24024,-3.1465 3.75111,-1.0257 7.121,-1.8579 7.95117,-1.9843 1.64187,-0.2502 4.52031,-1.4125 8.0332,-2.625 2.2084,-0.7321 4.30386,-1.4959 6.30274,-2.3868 1.99888,-0.8908 3.90056,-1.9084 5.7207,-3.1464 1.82014,-1.2383 3.5583,-2.6966 5.23047,-4.4708 1.67217,-1.7741 3.27902,-3.8646 4.83399,-6.3632 0.41355,-0.7997 0.78844,-1.7882 1.06054,-2.7383 0.27211,-0.9502 0.44141,-1.8621 0.44141,-2.5039 0,-0.7697 0.2567,-1.5054 0.76562,-2.1973 0.50893,-0.6919 1.27012,-1.3401 2.27149,-1.9316 1.16472,-0.6881 2.38432,-1.8232 3.58008,-3.2637 1.19575,-1.4404 2.36768,-3.1866 3.43554,-5.0957 1.06787,-1.9091 2.03146,-3.9806 2.8125,-6.0742 0.78105,-2.0936 1.37955,-4.209 1.71485,-6.2031 0.23131,-1.375 0.90869,-5.4252 1.50586,-9 0.43991,-2.6335 0.82611,-4.7408 1.21289,-6.4434 0.38677,-1.7026 0.77365,-2.9996 1.21093,-4.0117 0.43746,-1.0122 0.92563,-1.7408 1.51758,-2.3028 0.59196,-0.562 1.28857,-0.9583 2.13867,-1.3105 1.32502,-0.5489 2.39353,-1.0921 3.25586,-1.7149 0.86251,-0.6227 1.51911,-1.3247 2.01563,-2.1894 0.49652,-0.8647 0.83348,-1.8933 1.06055,-3.168 0.22706,-1.2747 0.34429,-2.7957 0.39843,-4.6484 0.082,-2.8063 0.0431,-4.5843 -0.23242,-5.89258 -0.13774,-0.65421 -0.33414,-1.18961 -0.60547,-1.67969 -0.27132,-0.49009 -0.61641,-0.93417 -1.05078,-1.40039 -0.6037,-0.648 -1.42165,-1.20789 -2.29297,-1.60547 -0.87132,-0.39758 -1.79603,-0.63281 -2.61328,-0.63281 h -2.82226 l -0.51368,-8.9961 c -0.14097,-2.47393 -0.38448,-4.86289 -0.66211,-6.7207 -0.27762,-1.85781 -0.58934,-3.18445 -0.86914,-3.5293 -0.27983,-0.34486 -0.58819,-1.10845 -0.85937,-2.06054 -0.27118,-0.95227 -0.50519,-2.09354 -0.63672,-3.19336 -0.1804,-1.50793 -0.54566,-3.11955 -1.05469,-4.69922 -0.50902,-1.57967 -1.1623,-3.12762 -1.92187,-4.50977 -0.75957,-1.38214 -1.62461,-2.59832 -2.55664,-3.51367 -0.46602,-0.45768 -0.94887,-0.84037 -1.44336,-1.13086 -0.4945,-0.29049 -1.00046,-0.48848 -1.51367,-0.57813 -0.51466,-0.09 -1.24956,-0.5487 -1.86329,-1.09179 -0.61373,-0.5431 -1.10629,-1.17053 -1.13671,-1.59571 -0.32554,-1.0063 -0.76351,-1.94421 -1.25977,-2.80273 -0.49626,-0.85852 -1.05282,-1.6385 -1.61523,-2.32812 -1.12518,-1.37959 -2.2768,-2.40045 -3.04102,-2.98047 -0.59563,-0.85571 -1.02663,-1.66066 -1.32031,-2.47461 -0.29368,-0.81396 -0.45005,-1.63692 -0.50391,-2.52539 -0.057,-0.93958 -0.18381,-1.73948 -0.43359,-2.46094 -0.24979,-0.72146 -0.62365,-1.36419 -1.17578,-1.99219 -0.55214,-0.628 -1.28207,-1.2412 -2.2461,-1.90039 -0.96402,-0.65919 -2.16103,-1.36465 -3.64648,-2.17969 -1.38934,-0.76235 -2.17026,-1.29571 -2.5293,-1.93359 -0.17952,-0.31894 -0.25382,-0.66332 -0.24609,-1.07617 0.008,-0.41286 0.098,-0.89425 0.24609,-1.48438 0.3772,-1.50187 1.16827,-3.31463 1.75977,-4.02734 0.50016,-0.60274 0.82081,-1.78969 0.9707,-3.66992 0.14989,-1.88041 0.12901,-4.45447 -0.0547,-7.82813 -0.0436,-0.80028 -0.37739,-1.72377 -0.9082,-2.67383 -0.53081,-0.95005 -1.26035,-1.9255 -2.09766,-2.83008 -0.8373,-0.9044 -1.7811,-1.73848 -2.74414,-2.40234 -0.96303,-0.66386 -1.94356,-1.15882 -2.85156,-1.38672 -0.75076,-0.18841 -1.51024,-0.68427 -2.20899,-1.41797 -0.69857,-0.7337 -1.33673,-1.70523 -1.85156,-2.8457 -1.82014,-4.03221 -3.24782,-7.09755 -4.6289,-9.41992 -0.69063,-1.16119 -1.37105,-2.13688 -2.08204,-2.95508 -0.71081,-0.8182 -1.45342,-1.47823 -2.27148,-2.00977 -0.81806,-0.53153 -1.7108,-0.93318 -2.72266,-1.23437 -1.01169,-0.30119 -2.14316,-0.50174 -3.43554,-0.62891 -2.58476,-0.25433 -5.81599,-0.21715 -10.04297,-0.11328 -5.893,0.14476 -8.95431,0.19978 -10.72071,-0.0586 -0.88302,-0.12918 -1.4429,-0.33609 -1.87109,-0.65039 -0.42819,-0.31431 -0.72443,-0.73536 -1.08203,-1.29102 -0.87985,-1.36711 -2.24554,-4.63233 -3.48242,-8.08594 -1.23688,-3.45344 -2.34495,-7.09563 -2.71289,-9.21289 -0.27743,-1.59626 -0.83123,-3.76904 -1.55469,-6.21875 -0.72346,-2.44954 -1.61727,-5.17617 -2.57422,-7.8789 -0.95695,-2.70291 -1.97716,-5.38262 -2.95508,-7.73828 -0.97792,-2.35584 -1.91287,-4.38837 -2.69922,-5.79688 -1.09787,-1.96654 -1.71528,-3.30412 -1.99414,-4.78906 -0.27885,-1.48495 -0.21909,-3.11744 0.0312,-5.66992 0.2766,-2.35009 0.7383,-4.78265 1.30664,-7.27149 0.56835,-2.48884 1.2422,-5.03402 1.94532,-7.60547 1.40606,-5.14272 2.9262,-10.39482 3.92968,-15.53125 0.42027,-2.1512 0.83638,-4.65278 1.2168,-7.49023 0.38043,-2.83763 0.72343,-6.01177 0.99609,-9.50782 0.27266,-3.49587 0.4753,-7.31299 0.57227,-11.43945 0.097,-4.12646 0.09,-8.56214 -0.0566,-13.29102 -0.28706,-9.25749 -0.41524,-14.12731 -0.24609,-16.74218 0.0846,-1.30752 0.24215,-2.0519 0.49218,-2.49805 0.25004,-0.44615 0.5932,-0.59526 1.04297,-0.71289 0.65945,-0.17245 1.33394,-0.6602 1.96485,-1.3457 0.6309,-0.68551 1.21794,-1.56785 1.70312,-2.53321 0.48518,-0.96536 0.86757,-2.01337 1.08984,-3.02539 0.22228,-1.01202 0.28477,-1.98897 0.12696,-2.81445 -0.19826,-1.03699 -0.15605,-1.88663 0.22265,-2.76172 0.37871,-0.87509 1.09393,-1.77564 2.23438,-2.91602 1.11205,-1.11191 1.81727,-2.00483 2.18945,-2.83984 0.37218,-0.835 0.41132,-1.61227 0.18946,-2.49609 -0.1181,-0.47058 -0.1698,-0.88711 -0.13672,-1.28125 0.0331,-0.39414 0.14944,-0.7654 0.36914,-1.14453 0.4394,-0.75827 1.28894,-1.54843 2.6875,-2.61524 1.10207,-0.84058 2.05647,-1.66577 2.8789,-2.49609 0.82243,-0.83033 1.51111,-1.66494 2.07813,-2.52149 0.56702,-0.85654 1.01378,-1.73506 1.34961,-2.65429 0.33583,-0.91924 0.56253,-1.88004 0.6914,-2.89844 0.30507,-2.41052 0.67456,-4.15391 1.13477,-5.29492 0.23011,-0.57051 0.48127,-0.99036 0.75977,-1.26758 0.27849,-0.27722 0.58468,-0.41211 0.91796,-0.41211 0.4935,-10e-6 1.06256,-0.43954 1.63868,-1.16797 0.57611,-0.72843 1.15828,-1.74539 1.67968,-2.89844 0.52141,-1.15305 0.98118,-2.44308 1.31055,-3.71679 0.32937,-1.27388 0.5293,-2.53214 0.5293,-3.62305 0,-0.94233 0.0174,-1.67541 0.10547,-2.27539 0.088,-0.59998 0.24547,-1.0658 0.52343,-1.47266 0.27797,-0.40686 0.67638,-0.75617 1.2461,-1.11914 0.56972,-0.36297 1.31206,-0.74068 2.27539,-1.20898 1.27717,-0.6209 2.56174,-1.4308 3.77148,-2.3418 1.20975,-0.911 2.34395,-1.92278 3.31836,-2.94727 0.97441,-1.02431 1.78822,-2.06208 2.35938,-3.02343 0.57116,-0.96136 0.90039,-1.84677 0.90039,-2.56836 0,-1.18296 -0.43479,-3.66841 -0.9668,-5.52344 -0.21749,-0.75836 -0.37062,-1.36432 -0.43555,-1.88477 -0.0649,-0.52044 -0.0424,-0.95525 0.0859,-1.36914 0.25664,-0.82777 0.94118,-1.57393 2.21485,-2.76367 1.31242,-1.22615 2.43836,-2.50957 3.39062,-3.88281 0.95226,-1.37325 1.72945,-2.83591 2.34766,-4.42383 0.61821,-1.58792 1.07626,-3.29975 1.38672,-5.16992 0.31046,-1.87018 0.47489,-3.89913 0.5039,-6.11914 0.0416,-3.17516 0.17916,-5.36065 0.52539,-7.10938 0.34623,-1.74873 0.9011,-3.06072 1.77149,-4.48828 1.36388,-2.23695 2.43534,-4.54262 3.20898,-6.81641 0.77364,-2.27362 1.24861,-4.51598 1.41602,-6.625 0.1674,-2.10884 0.0271,-4.08549 -0.42774,-5.82812 -0.22741,-0.87132 -0.53395,-1.68387 -0.91992,-2.42578 -0.38597,-0.74192 -0.84996,-1.41269 -1.39648,-2 -0.91641,-0.9848 -1.40563,-1.62888 -1.52735,-2.24805 -0.12171,-0.61917 0.1241,-1.21344 0.67383,-2.09375 0.38992,-0.62428 0.68614,-1.78726 0.86914,-3.30078 0.183,-1.51352 0.25277,-3.37759 0.1836,-5.40625 -0.0905,-2.64884 -0.27409,-4.47949 -0.67774,-5.9707 -0.40364,-1.49139 -1.02735,-2.64369 -2.00391,-3.93555 -1.10726,-1.46491 -1.6869,-2.3312 -1.83007,-3.08594 -0.0716,-0.37737 -0.0354,-0.72738 0.0996,-1.10937 0.13499,-0.382 0.3689,-0.79662 0.6875,-1.30469 0.77663,-1.23897 1.34856,-2.92688 1.26953,-3.75195 -0.079,-0.825 -0.21298,-2.3069 -0.29688,-3.29297 -0.042,-0.49302 -0.58433,-1.47925 -1.42187,-2.66992 -0.83755,-1.19085 -1.97023,-2.5865 -3.19922,-3.9004 -1.55488,-1.66206 -2.69994,-3.11861 -3.48633,-4.45703 -0.78639,-1.33842 -1.21411,-2.55889 -1.33789,-3.75195 -0.12695,-1.22475 -0.32615,-2.36019 -0.59961,-3.41016 -0.27346,-1.04996 -0.62234,-2.01379 -1.04688,-2.89843 -0.42436,-0.88465 -0.92586,-1.68919 -1.50585,-2.41797 -0.58017,-0.72878 -1.23817,-1.38248 -1.97852,-1.96485 -1.41607,-1.11386 -2.57617,-2.42211 -2.57617,-2.9082 0,-0.48612 -0.90001,-1.6558 -2,-2.59766 -0.55004,-0.47094 -1.0482,-1.09565 -1.40625,-1.72461 -0.35806,-0.62878 -0.57598,-1.26214 -0.57031,-1.74609 0.009,-0.74696 0.23061,-1.527 0.60156,-2.27734 0.37095,-0.75035 0.89071,-1.47068 1.5,-2.09766 0.60929,-0.62698 1.30678,-1.16024 2.03125,-1.53711 0.72446,-0.37686 1.47688,-0.59766 2.19336,-0.59766 1.48108,-0.0237 2.53029,-0.0822 3.38281,0.14063 0.42626,0.11144 0.80313,0.29171 1.16016,0.58398 0.35703,0.29227 0.69461,0.69552 1.04101,1.24805 0.42025,0.91452 0.78804,1.91704 1.05469,2.94922 0.26664,1.03218 0.43215,2.09403 0.44726,3.12695 0.17017,1.24255 0.60495,2.51805 1.23047,3.76563 0.62552,1.24757 1.44119,2.46771 2.3711,3.60156 0.9299,1.13385 1.97331,2.18065 3.05664,3.08203 1.08333,0.90138 2.20719,1.65688 3.29297,2.20703 1.14882,0.39345 2.45954,0.69064 3.71289,0.82618 1.25335,0.13553 2.44933,0.10943 3.36914,-0.14454 0.96979,-0.26777 1.98692,-0.7463 2.96875,-1.35546 0.98182,-0.60934 1.92775,-1.35011 2.75195,-2.13868 0.82421,-0.78856 1.52651,-1.62619 2.02344,-2.43164 0.49693,-0.80545 0.78906,-1.57828 0.78906,-2.23828 0,-0.61615 0.22702,-1.15679 0.6543,-1.59375 0.42728,-0.43696 1.05502,-0.77026 1.85351,-0.9707 0.7602,-0.19081 1.44493,-0.58321 1.98633,-1.10938 0.54141,-0.52616 0.93949,-1.18611 1.1211,-1.91015 0.11992,-0.47781 0.263,-0.82301 0.45117,-1.08399 0.18817,-0.26097 0.42028,-0.43712 0.7168,-0.57422 0.59286,-0.27418 1.44398,-0.39432 2.71093,-0.73046 1.19418,-0.31701 2.10529,-0.85372 2.88477,-1.44922 0.77948,-0.5955 1.42733,-1.24997 2.0957,-1.80078 0.36593,-0.30171 0.81851,-0.7995 1.26563,-1.44336 0.44711,-0.64403 0.88881,-1.43447 1.22851,-2.31836 0.42276,-0.65482 0.65618,-1.12402 0.75196,-1.62891 0.0958,-0.50489 0.0539,-1.04548 -0.0801,-1.83984 0.2675,-1.16649 1.22063,-2.88248 2.17578,-4.57422 0.95515,-1.69175 1.91232,-3.35926 2.18359,-4.42969 0.11414,-0.45023 0.58038,-1.04663 1.34766,-1.67188 0.76728,-0.62507 1.83563,-1.27935 3.15234,-1.84375 1.23751,-0.53028 2.36211,-1.13762 3.17774,-1.6875 0.81562,-0.5497 1.32226,-1.04247 1.32226,-1.3457 0,-0.42534 0.44041,-1.13625 1.13282,-1.96289 0.69223,-0.82664 1.63552,-1.76869 2.63867,-2.6582 1.00314,-0.88952 2.06584,-1.72588 2.99804,-2.33985 0.93221,-0.61396 1.73525,-1.00586 2.21485,-1.00586 0.46187,0 0.96362,-0.15392 1.47265,-0.42773 0.50904,-0.27381 1.0246,-0.66689 1.51368,-1.14844 0.97798,-0.96309 1.85005,-2.2762 2.3457,-3.67383 0.17064,-0.48125 0.47589,-0.91914 0.83203,-1.23632 0.35614,-0.31719 0.76315,-0.51368 1.13281,-0.51368 0.43306,0 0.90941,-0.16277 1.41211,-0.46093 0.5027,-0.29816 1.03143,-0.73058 1.56836,-1.26758 1.07387,-1.07401 2.17945,-2.56677 3.17774,-4.24024 0.99828,-1.67329 1.88796,-3.5278 2.52734,-5.32617 0.63938,-1.79837 1.03019,-3.54151 1.02734,-4.99023 -0.002,-1.49538 -0.39175,-3.23769 -1.14062,-5.18164 -0.74887,-1.94413 -1.85815,-4.0909 -3.29688,-6.39258 -1.43855,-2.30168 -3.2079,-4.7583 -5.27929,-7.32617 -2.07156,-2.56804 -4.44442,-5.24703 -7.0918,-7.99024 l -5.47656,-5.67578 -0.21289,-9.86133 c -0.0669,-3.10642 -0.24895,-5.80006 -0.52344,-7.91015 -0.27449,-2.11027 -0.64139,-3.63754 -1.08008,-4.41407 -0.65588,-1.13774 -1.42165,-2.18523 -2.2793,-3.15234 -0.85765,-0.96712 -1.80882,-1.85368 -2.83593,-2.66797 -1.02712,-0.81429 -2.13064,-1.55705 -3.29493,-2.23633 -1.16411,-0.67927 -2.38905,-1.29536 -3.6582,-1.85742 -2.53831,-1.12412 -5.25359,-2.03088 -8.01758,-2.79297 -2.76381,-0.76208 -5.57537,-1.37939 -8.30664,-1.92187 -2.19999,-0.21577 -6.34227,-0.85614 -9.20312,-1.42383 -1.37195,-0.27222 -2.42771,-0.5109 -3.24414,-0.81055 -0.81643,-0.29965 -1.39457,-0.65911 -1.8086,-1.17773 -0.41403,-0.51863 -0.66532,-1.19586 -0.83008,-2.125 -0.16475,-0.92915 -0.24194,-2.11137 -0.31054,-3.64258 -0.05,-1.11477 -0.20154,-2.15079 -0.49024,-3.17188 -0.2887,-1.02108 -0.71598,-2.0262 -1.3164,-3.08203 -0.60042,-1.05582 -1.37424,-2.16187 -2.35938,-3.38086 -0.98514,-1.21898 -2.18017,-2.55193 -3.62305,-4.0625 -2.79861,-2.92987 -5.47843,-5.51018 -8.13086,-7.73828 -2.65225,-2.2281 -5.27794,-4.10331 -7.96875,-5.625 -1.34523,-0.76084 -2.70802,-1.43417 -4.09765,-2.01758 -1.38964,-0.5834 -2.80688,-1.07701 -4.26367,-1.48242 -1.45696,-0.40541 -2.9528,-0.72236 -4.5,-0.94922 -1.54738,-0.22685 -3.14593,-0.36437 -4.80664,-0.41211 -2.57969,-0.14895 -4.98038,-0.14919 -7.21875,-0.0234 -2.23855,0.12572 -4.31531,0.37766 -6.25,0.73242 -1.93487,0.35476 -3.72785,0.81341 -5.39649,1.35156 -1.66864,0.53815 -3.21441,1.15612 -4.6543,1.83203 -2.8796,1.35181 -5.33992,2.93351 -7.52929,4.5625 -2.18955,1.62899 -4.10741,3.30484 -5.90625,4.8457 -0.96257,0.88623 -1.90831,1.98614 -2.71875,3.15625 -0.81045,1.17029 -1.48557,2.41114 -1.91016,3.58399 -0.0302,0.0827 -0.17903,0.45155 -0.31055,0.93359 -0.46167,-0.0433 -0.90415,-0.11903 -1.77148,-0.16015 -1.00928,-0.10545 -2.50629,-0.065 -4.2832,0.0937 -3.51687,0.31415 -8.13061,1.08862 -12.21875,2.09375 -2.04416,0.50256 -3.95719,1.06264 -5.53711,1.65234 -1.5801,0.58971 -2.82569,1.20834 -3.53711,1.82813 -0.68646,0.59785 -1.64896,1.67001 -2.58594,2.59179 -0.93698,0.92178 -1.84846,1.69336 -2.43555,1.69336 -0.35131,0 -0.67084,-0.15036 -0.90234,-0.39258 -0.23151,-0.24221 -0.375,-0.57628 -0.375,-0.94336 0,-0.73853 -0.27119,-2.00702 -0.71485,-3.55273 -0.44366,-1.54571 -1.06069,-3.36761 -1.75586,-5.21094 -0.69499,-1.84333 -1.46814,-3.70827 -2.22265,-5.33984 -0.75451,-1.63157 -1.48964,-3.03099 -2.11133,-3.94141 -0.72869,-1.06709 -1.81857,-2.30745 -2.98633,-3.44531 -1.16775,-1.13786 -2.41341,-2.17322 -3.45703,-2.83203 -1.60588,-1.01375 -2.51625,-1.68628 -2.91601,-2.30664 -0.19997,-0.31019 -0.27362,-0.60705 -0.24219,-0.92774 0.0314,-0.32068 0.16868,-0.6646 0.38476,-1.06836 0.42057,-0.78574 0.79404,-1.86733 1.07813,-3.20312 0.28409,-1.33579 0.47805,-2.92643 0.53515,-4.73047 0.0571,-1.80404 -0.0228,-3.82122 -0.2832,-6.01172 -0.2604,-2.1905 -0.70072,-4.55367 -1.36914,-7.04883 -0.43119,-1.60949 -0.93755,-2.96768 -1.47656,-4.11523 -0.53901,-1.14756 -1.11178,-2.08511 -1.67383,-2.85156 -1.1241,-1.53326 -2.2084,-2.38523 -2.91602,-2.88086 -0.45455,-0.31838 -0.80733,-0.60839 -1.07031,-0.9375 -0.26297,-0.32912 -0.43599,-0.69668 -0.53515,-1.16993 -0.19833,-0.94631 -0.0969,-2.31529 0.19336,-4.63867 0.28805,-2.30685 0.59286,-3.75395 0.55273,-5.04101 -0.0201,-0.64353 -0.12712,-1.24723 -0.36523,-1.89844 -0.23829,-0.65121 -0.60705,-1.34979 -1.1543,-2.18359 -1.14841,-1.75013 -2.10322,-3.14053 -2.98047,-4.2754 -0.87726,-1.13469 -1.67807,-2.01325 -2.52149,-2.73632 -0.84324,-0.72308 -1.72849,-1.29206 -2.77539,-1.80664 -1.04672,-0.51476 -2.2545,-0.97641 -3.74218,-1.48633 -1.8073,-0.61946 -3.54028,-1.0887 -5.19727,-1.41016 -1.65698,-0.32145 -3.23844,-0.49511 -4.74219,-0.51953 -1.50374,-0.0244 -2.92977,0.0994 -4.27734,0.37109 -1.34757,0.27165 -2.61622,0.69107 -3.80469,1.25782 -1.70965,0.81527 -2.65266,1.22265 -3.52344,1.22265 -0.8706,0 -1.66933,-0.40738 -3.08984,-1.22265 -0.92063,-0.52837 -1.81795,-0.92881 -2.74609,-1.20118 -0.92815,-0.27236 -1.88853,-0.41728 -2.9375,-0.43554 -1.04897,-0.0183 -2.18565,0.0903 -3.46875,0.32422 -1.28311,0.23393 -2.71125,0.5939 -4.3418,1.07812 -2.35933,0.70065 -3.67721,1.04233 -4.91016,0.96484 -1.23295,-0.0775 -2.38095,-0.57415 -4.40234,-1.55078 -1.17841,-0.56935 -2.3688,-0.97917 -3.55664,-1.23047 -1.18784,-0.25112 -2.37451,-0.34281 -3.54883,-0.27734 -1.17432,0.0655 -2.33482,0.28897 -3.47266,0.66992 -1.13766,0.38096 -2.25185,0.91812 -3.33007,1.61328 -0.92954,0.59918 -1.8636,1.15322 -2.69727,1.33399 -0.41684,0.0904 -0.8077,0.0889 -1.16211,-0.0488 -0.35441,-0.13775 -0.67116,-0.41114 -0.9375,-0.85937 -0.23846,-0.40133 -0.58647,-0.75521 -1.01562,-1.0625 -0.42916,-0.3073 -0.93986,-0.56844 -1.50586,-0.7793 -1.132,-0.42172 -2.48361,-0.64833 -3.83985,-0.66992 -1.35623,-0.0216 -2.71756,0.1628 -3.86719,0.56054 -0.57464,0.19887 -1.09668,0.45051 -1.53906,0.75782 -0.44238,0.3073 -0.80445,0.66975 -1.06054,1.08789 -0.2524,0.41211 -0.63281,0.68946 -1.0918,0.83984 -0.459,0.15039 -0.99829,0.17459 -1.56445,0.0801 -0.56634,-0.0945 -1.15996,-0.30821 -1.73438,-0.63086 -0.57442,-0.32265 -1.12809,-0.7551 -1.61133,-1.28906 -0.64671,-0.71453 -1.67196,-1.24686 -2.90234,-1.59766 -1.23038,-0.3508 -2.66575,-0.52008 -4.13672,-0.50977 z m -47.73633,29.24024 c 0.43955,-0.004 1.06668,0.011 1.92383,0.0527 -1.71429,-0.0834 -2.51216,-0.0634 -2.71875,0.0156 0.10338,-0.0395 0.35536,-0.0639 0.79492,-0.0684 z m -6.23438,4.35937 c 0.10741,-0.001 0.21604,-4.3e-4 0.32422,0.004 -0.43274,-0.0174 -0.86177,0.01 -1.27148,0.084 0.30728,-0.0557 0.62505,-0.0842 0.94726,-0.0879 z m -5.88867,3.13868 c 0.0918,-0.01 0.16726,0.008 0.22656,0.0508 -0.1186,-0.0864 -0.30033,-0.067 -0.55273,0.0605 0.1262,-0.0638 0.23436,-0.10133 0.32617,-0.11133 z m -130.29297,38.16406 c 0.49432,0.0334 1.09933,0.21535 1.75781,0.50586 -0.87797,-0.38735 -1.66017,-0.58192 -2.21289,-0.48828 0.13818,-0.0234 0.2903,-0.0287 0.45508,-0.0176 z m 16.71484,17.83399 c 0.34951,-0.01 0.74772,0.0188 1.17969,0.082 -0.86394,-0.12657 -1.58972,-0.11611 -2.07031,0.0684 0.24029,-0.0922 0.54111,-0.14053 0.89062,-0.15039 z m -9.72851,10.58789 c 0.79157,-0.0233 1.47973,-0.013 2.05859,0.0312 -1.15772,-0.0884 -2.75615,-0.0427 -4.73437,0.14062 0.98908,-0.0916 1.8842,-0.14857 2.67578,-0.17187 z m 112.60547,1.98437 c 0.1751,0.0221 0.36651,0.071 0.56836,0.14844 -0.4037,-0.15492 -0.76938,-0.19521 -1.03516,-0.13672 0.13289,-0.0293 0.29169,-0.0339 0.4668,-0.0117 z m 214.03321,4.0957 c 0.75874,0.009 1.59242,0.0416 2.50781,0.0957 -1.83077,-0.10821 -3.33633,-0.13184 -4.56445,-0.0508 0.61405,-0.0405 1.2979,-0.0542 2.05664,-0.0449 z m -288.39454,11.75977 c 0.11838,-0.0183 0.25613,-0.0142 0.41211,0.0137 -0.31196,-0.0557 -0.54999,-0.0187 -0.70899,0.10938 0.0795,-0.064 0.1785,-0.10475 0.29688,-0.12305 z m 36.85547,1.80078 c 2.24928,0.0235 4.00128,0.20456 4.27539,0.47852 -0.36548,-0.36527 -3.35883,-0.56618 -6.6543,-0.44727 0.82387,-0.0297 1.62915,-0.0391 2.37891,-0.0312 z m 52.25195,0.8418 c 0.13102,0.0102 0.193,0.27892 0.19336,0.80078 -4.8e-4,-0.69577 -0.11062,-0.94147 -0.34765,-0.72461 0.0592,-0.0542 0.11062,-0.0796 0.15429,-0.0762 z m 204.28516,20.69531 c 0.89355,-0.0122 1.81631,0.0458 2.74805,0.18555 -1.86349,-0.27945 -3.68766,-0.23278 -5.32422,0.0508 0.81828,-0.14177 1.68263,-0.22415 2.57617,-0.23633 z m -365.0879,9.91406 c 1.51878,-0.0329 3.33106,-0.0236 5.55079,0.0137 -4.43945,-0.0745 -7.2459,-0.0376 -9.34376,0.22656 1.04893,-0.13207 2.27432,-0.2073 3.79297,-0.24024 z m 2.56446,10.00782 c 0.48168,-0.0209 0.94219,0.009 1.38867,0.0937 -0.89295,-0.16916 -1.84421,-0.11721 -2.90234,0.11523 0.52902,-0.11622 1.03199,-0.18809 1.51367,-0.20898 z m -27.99024,11.99804 c 0.13425,-0.0141 0.2404,0.0136 0.31446,0.0879 -0.14812,-0.14865 -0.42524,-0.10977 -0.79688,0.0742 0.18582,-0.092 0.34817,-0.14797 0.48242,-0.16211 z m 128.7793,131.18165 c 0.2351,0.0108 0.39112,0.09 0.48047,0.25976 -0.17871,-0.33954 -0.62589,-0.31864 -1.43359,-0.10742 0.40385,-0.10561 0.71803,-0.16316 0.95312,-0.15234 z m 239.41212,279.58399 c 0.39899,0.55004 0.91733,1.23967 1.32812,2.02734 0.41082,0.78769 0.80767,1.81496 1.10156,2.82422 0.2939,1.00926 0.48483,2.00052 0.48633,2.71094 -0.001,-0.71042 -0.19243,-1.70168 -0.48633,-2.71094 -0.29389,-1.00926 -0.69074,-2.03653 -1.10156,-2.82422 -0.41079,-0.78767 -0.92913,-1.4773 -1.32812,-2.02734 z m -316.83985,28.83984 c 0.34106,-0.0108 0.65144,0.0132 0.93164,0.0645 -0.56039,-0.10247 -1.24399,-0.0944 -2.04493,0.0781 0.40047,-0.0862 0.77222,-0.1318 1.11329,-0.14258 z m 1.39453,19.78321 c 0.36408,-0.016 0.70778,-0.0145 1.01172,0.0234 -0.54379,-0.0678 -1.22901,-0.0166 -1.91407,0.041 0.30503,-0.0257 0.61236,-0.0517 0.90235,-0.0645 z m 417.25782,106.68747 c 0.11718,0.021 0.22518,0.091 0.31641,0.2012 -0.18245,-0.221 -0.42851,-0.2758 -0.69141,-0.1133 0.13145,-0.081 0.25782,-0.1089 0.375,-0.088 z m 8.54297,0.3164 c 0.0671,-0.025 0.13574,0 0.20703,0.068 -0.14257,-0.1426 -0.2767,-0.087 -0.40234,0.1484 0.0628,-0.118 0.12825,-0.1913 0.19531,-0.2168 z" /></g></svg>
